<mxfile host="app.diagrams.net" modified="2023-10-17T07:39:45.780Z" agent="Mozilla/5.0 (Windows NT 10.0; Win64; x64) AppleWebKit/537.36 (KHTML, like Gecko) Chrome/118.0.0.0 Safari/537.36" etag="Yxjs_clp0kPkmps-xVJf" version="22.0.4" type="device">
  <diagram name="Page-1" id="e7e014a7-5840-1c2e-5031-d8a46d1fe8dd">
    <mxGraphModel dx="1354" dy="686" grid="1" gridSize="10" guides="1" tooltips="1" connect="1" arrows="1" fold="1" page="1" pageScale="1" pageWidth="1169" pageHeight="826" background="none" math="0" shadow="0">
      <root>
        <mxCell id="0" />
        <mxCell id="1" parent="0" />
        <mxCell id="SyflD4wRQNZvbjh-Ypq2-3" value="" style="edgeStyle=elbowEdgeStyle;elbow=vertical;verticalAlign=bottom;endArrow=open;endSize=8;strokeColor=#FF0000;endFill=1;rounded=0;exitX=1;exitY=0.5;exitDx=0;exitDy=0;entryX=0;entryY=0.5;entryDx=0;entryDy=0;" parent="1" source="SyflD4wRQNZvbjh-Ypq2-17" target="SyflD4wRQNZvbjh-Ypq2-11" edge="1">
          <mxGeometry x="264.5" y="168" as="geometry">
            <mxPoint x="880.5" y="450" as="targetPoint" />
            <mxPoint x="880" y="410" as="sourcePoint" />
          </mxGeometry>
        </mxCell>
        <mxCell id="SyflD4wRQNZvbjh-Ypq2-5" value="Purchase Order" style="rounded=0;whiteSpace=wrap;html=1;" parent="1" vertex="1">
          <mxGeometry x="350" y="40" width="120" height="60" as="geometry" />
        </mxCell>
        <mxCell id="SyflD4wRQNZvbjh-Ypq2-11" value="Payment hold&lt;br&gt;(Update)" style="rounded=1;whiteSpace=wrap;html=1;" parent="1" vertex="1">
          <mxGeometry x="990" y="220" width="120" height="60" as="geometry" />
        </mxCell>
        <mxCell id="SyflD4wRQNZvbjh-Ypq2-13" value="Update Final Purchase Order" style="rounded=1;whiteSpace=wrap;html=1;" parent="1" vertex="1">
          <mxGeometry x="350" y="402" width="120" height="60" as="geometry" />
        </mxCell>
        <mxCell id="SyflD4wRQNZvbjh-Ypq2-14" value="slots Avalibility" style="rounded=1;whiteSpace=wrap;html=1;" parent="1" vertex="1">
          <mxGeometry x="350" y="220" width="120" height="60" as="geometry" />
        </mxCell>
        <mxCell id="SyflD4wRQNZvbjh-Ypq2-16" value="Plexaar Sale Order" style="rounded=1;whiteSpace=wrap;html=1;" parent="1" vertex="1">
          <mxGeometry x="730" y="810" width="120" height="60" as="geometry" />
        </mxCell>
        <mxCell id="SyflD4wRQNZvbjh-Ypq2-17" value="Payment" style="rounded=1;whiteSpace=wrap;html=1;" parent="1" vertex="1">
          <mxGeometry x="790.0000000000001" y="220" width="120" height="60" as="geometry" />
        </mxCell>
        <mxCell id="SyflD4wRQNZvbjh-Ypq2-18" value="Update &lt;br&gt;Slots_Captured" style="rounded=1;whiteSpace=wrap;html=1;" parent="1" vertex="1">
          <mxGeometry x="560" y="218" width="120" height="60" as="geometry" />
        </mxCell>
        <mxCell id="SyflD4wRQNZvbjh-Ypq2-19" value="Update Slot&amp;nbsp; UnCaptured" style="rounded=1;whiteSpace=wrap;html=1;" parent="1" vertex="1">
          <mxGeometry x="350" y="323" width="120" height="60" as="geometry" />
        </mxCell>
        <mxCell id="SyflD4wRQNZvbjh-Ypq2-20" value="Booking" style="rounded=1;whiteSpace=wrap;html=1;" parent="1" vertex="1">
          <mxGeometry x="350" y="710" width="120" height="60" as="geometry" />
        </mxCell>
        <mxCell id="SyflD4wRQNZvbjh-Ypq2-22" value="Invoice" style="rounded=1;whiteSpace=wrap;html=1;" parent="1" vertex="1">
          <mxGeometry x="350" y="900" width="120" height="60" as="geometry" />
        </mxCell>
        <mxCell id="SyflD4wRQNZvbjh-Ypq2-24" value="Plexaar Booking" style="rounded=1;whiteSpace=wrap;html=1;" parent="1" vertex="1">
          <mxGeometry x="930" y="920" width="120" height="60" as="geometry" />
        </mxCell>
        <mxCell id="SyflD4wRQNZvbjh-Ypq2-25" value="Plexaar Sales Order Action (Updated)" style="rounded=1;whiteSpace=wrap;html=1;" parent="1" vertex="1">
          <mxGeometry x="930" y="810" width="120" height="60" as="geometry" />
        </mxCell>
        <mxCell id="SyflD4wRQNZvbjh-Ypq2-27" value="Sales_Order Action&lt;br&gt;(Updated)" style="rounded=1;whiteSpace=wrap;html=1;" parent="1" vertex="1">
          <mxGeometry x="350" y="620" width="120" height="60" as="geometry" />
        </mxCell>
        <mxCell id="SyflD4wRQNZvbjh-Ypq2-34" value="" style="edgeStyle=elbowEdgeStyle;elbow=vertical;verticalAlign=bottom;endArrow=open;endSize=8;strokeColor=#FF0000;endFill=1;rounded=0;exitX=1;exitY=0.5;exitDx=0;exitDy=0;entryX=0.929;entryY=1.133;entryDx=0;entryDy=0;entryPerimeter=0;" parent="1" source="SyflD4wRQNZvbjh-Ypq2-14" target="SyflD4wRQNZvbjh-Ypq2-61" edge="1">
          <mxGeometry x="264.5" y="168" as="geometry">
            <mxPoint x="565" y="255" as="targetPoint" />
            <mxPoint x="480" y="200" as="sourcePoint" />
          </mxGeometry>
        </mxCell>
        <mxCell id="SyflD4wRQNZvbjh-Ypq2-49" value="" style="edgeStyle=elbowEdgeStyle;elbow=vertical;verticalAlign=bottom;endArrow=open;endSize=8;strokeColor=#FF0000;endFill=1;rounded=0;exitX=0.5;exitY=1;exitDx=0;exitDy=0;entryX=0.5;entryY=0;entryDx=0;entryDy=0;" parent="1" source="SyflD4wRQNZvbjh-Ypq2-25" target="SyflD4wRQNZvbjh-Ypq2-24" edge="1">
          <mxGeometry x="264.5" y="168" as="geometry">
            <mxPoint x="640" y="1060" as="targetPoint" />
            <mxPoint x="690" y="1050" as="sourcePoint" />
          </mxGeometry>
        </mxCell>
        <mxCell id="SyflD4wRQNZvbjh-Ypq2-50" value="" style="edgeStyle=elbowEdgeStyle;elbow=vertical;verticalAlign=bottom;endArrow=open;endSize=8;strokeColor=#FF0000;endFill=1;rounded=0;entryX=0.5;entryY=0;entryDx=0;entryDy=0;exitX=0.427;exitY=-0.008;exitDx=0;exitDy=0;exitPerimeter=0;" parent="1" source="SyflD4wRQNZvbjh-Ypq2-11" target="SyflD4wRQNZvbjh-Ypq2-5" edge="1">
          <mxGeometry x="264.5" y="168" as="geometry">
            <mxPoint x="970" y="170" as="targetPoint" />
            <mxPoint x="1040" y="170" as="sourcePoint" />
            <Array as="points">
              <mxPoint x="720" y="20" />
            </Array>
          </mxGeometry>
        </mxCell>
        <mxCell id="SyflD4wRQNZvbjh-Ypq2-54" value="Update Purchase Order" style="rounded=1;whiteSpace=wrap;html=1;" parent="1" vertex="1">
          <mxGeometry x="350" y="130" width="120" height="60" as="geometry" />
        </mxCell>
        <mxCell id="SyflD4wRQNZvbjh-Ypq2-55" value="" style="edgeStyle=elbowEdgeStyle;elbow=vertical;verticalAlign=bottom;endArrow=open;endSize=8;strokeColor=#FF0000;endFill=1;rounded=0;entryX=0;entryY=0.5;entryDx=0;entryDy=0;exitX=0;exitY=0.5;exitDx=0;exitDy=0;" parent="1" source="SyflD4wRQNZvbjh-Ypq2-19" target="SyflD4wRQNZvbjh-Ypq2-5" edge="1">
          <mxGeometry x="264.5" y="168" as="geometry">
            <mxPoint x="290.5" y="170" as="targetPoint" />
            <mxPoint x="290" y="130" as="sourcePoint" />
            <Array as="points">
              <mxPoint x="270" y="220" />
            </Array>
          </mxGeometry>
        </mxCell>
        <mxCell id="SyflD4wRQNZvbjh-Ypq2-56" value="" style="edgeStyle=elbowEdgeStyle;elbow=vertical;verticalAlign=bottom;endArrow=open;endSize=8;strokeColor=#FF0000;endFill=1;rounded=0" parent="1" edge="1">
          <mxGeometry x="264.5" y="168" as="geometry">
            <mxPoint x="409.88" y="323" as="targetPoint" />
            <mxPoint x="409.38" y="283" as="sourcePoint" />
          </mxGeometry>
        </mxCell>
        <mxCell id="SyflD4wRQNZvbjh-Ypq2-57" value="" style="edgeStyle=elbowEdgeStyle;elbow=vertical;verticalAlign=bottom;endArrow=open;endSize=8;strokeColor=#FF0000;endFill=1;rounded=0" parent="1" edge="1">
          <mxGeometry x="264.5" y="168" as="geometry">
            <mxPoint x="409.88" y="230" as="targetPoint" />
            <mxPoint x="409.38" y="190" as="sourcePoint" />
          </mxGeometry>
        </mxCell>
        <mxCell id="SyflD4wRQNZvbjh-Ypq2-58" value="" style="edgeStyle=elbowEdgeStyle;elbow=vertical;verticalAlign=bottom;endArrow=open;endSize=8;strokeColor=#FF0000;endFill=1;rounded=0;entryX=0.5;entryY=0;entryDx=0;entryDy=0;" parent="1" target="SyflD4wRQNZvbjh-Ypq2-54" edge="1">
          <mxGeometry x="264.5" y="168" as="geometry">
            <mxPoint x="409.88" y="140" as="targetPoint" />
            <mxPoint x="409.38" y="100" as="sourcePoint" />
          </mxGeometry>
        </mxCell>
        <mxCell id="SyflD4wRQNZvbjh-Ypq2-59" value="Produce" style="text;html=1;align=center;verticalAlign=middle;resizable=0;points=[];autosize=1;strokeColor=none;fillColor=none;" parent="1" vertex="1">
          <mxGeometry x="400" y="100" width="70" height="30" as="geometry" />
        </mxCell>
        <mxCell id="SyflD4wRQNZvbjh-Ypq2-60" value="Consume" style="text;html=1;align=center;verticalAlign=middle;resizable=0;points=[];autosize=1;strokeColor=none;fillColor=none;" parent="1" vertex="1">
          <mxGeometry x="405" y="190" width="70" height="30" as="geometry" />
        </mxCell>
        <mxCell id="SyflD4wRQNZvbjh-Ypq2-61" value="Produce" style="text;html=1;align=center;verticalAlign=middle;resizable=0;points=[];autosize=1;strokeColor=none;fillColor=none;" parent="1" vertex="1">
          <mxGeometry x="495" y="218" width="70" height="30" as="geometry" />
        </mxCell>
        <mxCell id="SyflD4wRQNZvbjh-Ypq2-62" value="Plexaar Customer" style="rounded=1;whiteSpace=wrap;html=1;" parent="1" vertex="1">
          <mxGeometry x="930" y="648" width="120" height="60" as="geometry" />
        </mxCell>
        <mxCell id="SyflD4wRQNZvbjh-Ypq2-63" value="Plexaar Invoice" style="rounded=1;whiteSpace=wrap;html=1;" parent="1" vertex="1">
          <mxGeometry x="930" y="1130" width="120" height="60" as="geometry" />
        </mxCell>
        <mxCell id="SyflD4wRQNZvbjh-Ypq2-64" value="Booking order Action&lt;br&gt;(Updated)" style="rounded=1;whiteSpace=wrap;html=1;" parent="1" vertex="1">
          <mxGeometry x="350" y="810" width="120" height="60" as="geometry" />
        </mxCell>
        <mxCell id="SyflD4wRQNZvbjh-Ypq2-65" value="Sales_Order" style="rounded=1;whiteSpace=wrap;html=1;" parent="1" vertex="1">
          <mxGeometry x="350" y="520" width="120" height="60" as="geometry" />
        </mxCell>
        <mxCell id="SyflD4wRQNZvbjh-Ypq2-66" value="Plexaar Booking Order Action (Updated)" style="rounded=1;whiteSpace=wrap;html=1;" parent="1" vertex="1">
          <mxGeometry x="930" y="1020" width="120" height="60" as="geometry" />
        </mxCell>
        <mxCell id="SyflD4wRQNZvbjh-Ypq2-67" value="Prdouce" style="text;html=1;align=center;verticalAlign=middle;resizable=0;points=[];autosize=1;strokeColor=none;fillColor=none;" parent="1" vertex="1">
          <mxGeometry x="405" y="290" width="70" height="30" as="geometry" />
        </mxCell>
        <mxCell id="SyflD4wRQNZvbjh-Ypq2-68" value="Consume" style="text;html=1;align=center;verticalAlign=middle;resizable=0;points=[];autosize=1;strokeColor=none;fillColor=none;" parent="1" vertex="1">
          <mxGeometry x="265" y="348" width="70" height="30" as="geometry" />
        </mxCell>
        <mxCell id="SyflD4wRQNZvbjh-Ypq2-69" value="Consume" style="text;html=1;align=center;verticalAlign=middle;resizable=0;points=[];autosize=1;strokeColor=none;fillColor=none;" parent="1" vertex="1">
          <mxGeometry x="680" y="300" width="70" height="30" as="geometry" />
        </mxCell>
        <mxCell id="SyflD4wRQNZvbjh-Ypq2-70" value="Produce" style="text;html=1;align=center;verticalAlign=middle;resizable=0;points=[];autosize=1;strokeColor=none;fillColor=none;" parent="1" vertex="1">
          <mxGeometry x="900" y="220" width="70" height="30" as="geometry" />
        </mxCell>
        <mxCell id="SyflD4wRQNZvbjh-Ypq2-71" value="" style="edgeStyle=elbowEdgeStyle;elbow=vertical;verticalAlign=bottom;endArrow=open;endSize=8;strokeColor=#FF0000;endFill=1;rounded=0;entryX=0;entryY=0.5;entryDx=0;entryDy=0;exitX=0;exitY=0.25;exitDx=0;exitDy=0;" parent="1" source="SyflD4wRQNZvbjh-Ypq2-5" target="SyflD4wRQNZvbjh-Ypq2-13" edge="1">
          <mxGeometry x="264.5" y="168" as="geometry">
            <mxPoint x="130" y="200" as="targetPoint" />
            <mxPoint x="200" y="200" as="sourcePoint" />
            <Array as="points">
              <mxPoint x="260" y="190" />
            </Array>
          </mxGeometry>
        </mxCell>
        <mxCell id="SyflD4wRQNZvbjh-Ypq2-72" value="" style="edgeStyle=elbowEdgeStyle;elbow=vertical;verticalAlign=bottom;endArrow=open;endSize=8;strokeColor=#FF0000;endFill=1;rounded=0;entryX=0.5;entryY=0;entryDx=0;entryDy=0;exitX=0;exitY=0;exitDx=0;exitDy=0;" parent="1" source="SyflD4wRQNZvbjh-Ypq2-5" target="SyflD4wRQNZvbjh-Ypq2-106" edge="1">
          <mxGeometry x="264.5" y="168" as="geometry">
            <mxPoint x="120" y="130" as="targetPoint" />
            <mxPoint x="190" y="130" as="sourcePoint" />
            <Array as="points">
              <mxPoint x="250" y="40" />
            </Array>
          </mxGeometry>
        </mxCell>
        <mxCell id="SyflD4wRQNZvbjh-Ypq2-73" value="" style="edgeStyle=elbowEdgeStyle;elbow=vertical;verticalAlign=bottom;endArrow=open;endSize=8;strokeColor=#FF0000;endFill=1;rounded=0;entryX=0.5;entryY=0;entryDx=0;entryDy=0;exitX=0.5;exitY=1;exitDx=0;exitDy=0;" parent="1" source="SyflD4wRQNZvbjh-Ypq2-24" target="SyflD4wRQNZvbjh-Ypq2-66" edge="1">
          <mxGeometry x="264.5" y="168" as="geometry">
            <mxPoint x="720" y="1020" as="targetPoint" />
            <mxPoint x="790" y="1020" as="sourcePoint" />
            <Array as="points">
              <mxPoint x="940" y="1000" />
            </Array>
          </mxGeometry>
        </mxCell>
        <mxCell id="SyflD4wRQNZvbjh-Ypq2-74" value="" style="edgeStyle=elbowEdgeStyle;elbow=vertical;verticalAlign=bottom;endArrow=open;endSize=8;strokeColor=#FF0000;endFill=1;rounded=0;entryX=0;entryY=0.5;entryDx=0;entryDy=0;exitX=1;exitY=0.5;exitDx=0;exitDy=0;" parent="1" source="SyflD4wRQNZvbjh-Ypq2-16" target="SyflD4wRQNZvbjh-Ypq2-25" edge="1">
          <mxGeometry x="264.5" y="168" as="geometry">
            <mxPoint x="860" y="730" as="targetPoint" />
            <mxPoint x="930" y="730" as="sourcePoint" />
            <Array as="points">
              <mxPoint x="890" y="840" />
            </Array>
          </mxGeometry>
        </mxCell>
        <mxCell id="SyflD4wRQNZvbjh-Ypq2-75" value="" style="edgeStyle=elbowEdgeStyle;elbow=vertical;verticalAlign=bottom;endArrow=open;endSize=8;strokeColor=#FF0000;endFill=1;rounded=0;entryX=0;entryY=0.5;entryDx=0;entryDy=0;exitX=1;exitY=0.5;exitDx=0;exitDy=0;" parent="1" source="SyflD4wRQNZvbjh-Ypq2-64" target="SyflD4wRQNZvbjh-Ypq2-16" edge="1">
          <mxGeometry x="264.5" y="168" as="geometry">
            <mxPoint x="565" y="730" as="targetPoint" />
            <mxPoint x="635" y="730" as="sourcePoint" />
            <Array as="points">
              <mxPoint x="600" y="840" />
            </Array>
          </mxGeometry>
        </mxCell>
        <mxCell id="SyflD4wRQNZvbjh-Ypq2-76" value="" style="edgeStyle=elbowEdgeStyle;elbow=vertical;verticalAlign=bottom;endArrow=open;endSize=8;strokeColor=#FF0000;endFill=1;rounded=0;entryX=0.5;entryY=0;entryDx=0;entryDy=0;exitX=0.5;exitY=1;exitDx=0;exitDy=0;" parent="1" source="SyflD4wRQNZvbjh-Ypq2-64" target="SyflD4wRQNZvbjh-Ypq2-22" edge="1">
          <mxGeometry x="264.5" y="168" as="geometry">
            <mxPoint x="150" y="900" as="targetPoint" />
            <mxPoint x="220" y="900" as="sourcePoint" />
            <Array as="points">
              <mxPoint x="380" y="890" />
            </Array>
          </mxGeometry>
        </mxCell>
        <mxCell id="SyflD4wRQNZvbjh-Ypq2-77" value="" style="edgeStyle=elbowEdgeStyle;elbow=vertical;verticalAlign=bottom;endArrow=open;endSize=8;strokeColor=#FF0000;endFill=1;rounded=0;entryX=0.5;entryY=0;entryDx=0;entryDy=0;exitX=0.5;exitY=1;exitDx=0;exitDy=0;" parent="1" source="SyflD4wRQNZvbjh-Ypq2-20" target="SyflD4wRQNZvbjh-Ypq2-64" edge="1">
          <mxGeometry x="264.5" y="168" as="geometry">
            <mxPoint x="120" y="900" as="targetPoint" />
            <mxPoint x="190" y="900" as="sourcePoint" />
            <Array as="points">
              <mxPoint x="420" y="790" />
            </Array>
          </mxGeometry>
        </mxCell>
        <mxCell id="SyflD4wRQNZvbjh-Ypq2-78" value="" style="edgeStyle=elbowEdgeStyle;elbow=vertical;verticalAlign=bottom;endArrow=open;endSize=8;strokeColor=#FF0000;endFill=1;rounded=0;entryX=0.5;entryY=0;entryDx=0;entryDy=0;exitX=0.5;exitY=1;exitDx=0;exitDy=0;" parent="1" source="SyflD4wRQNZvbjh-Ypq2-27" target="SyflD4wRQNZvbjh-Ypq2-20" edge="1">
          <mxGeometry x="264.5" y="168" as="geometry">
            <mxPoint x="140" y="580" as="targetPoint" />
            <mxPoint x="210" y="580" as="sourcePoint" />
            <Array as="points" />
          </mxGeometry>
        </mxCell>
        <mxCell id="SyflD4wRQNZvbjh-Ypq2-79" value="" style="edgeStyle=elbowEdgeStyle;elbow=vertical;verticalAlign=bottom;endArrow=open;endSize=8;strokeColor=#FF0000;endFill=1;rounded=0;entryX=0.5;entryY=0;entryDx=0;entryDy=0;exitX=0.5;exitY=1;exitDx=0;exitDy=0;" parent="1" source="SyflD4wRQNZvbjh-Ypq2-65" target="SyflD4wRQNZvbjh-Ypq2-27" edge="1">
          <mxGeometry x="264.5" y="168" as="geometry">
            <mxPoint x="150" y="590" as="targetPoint" />
            <mxPoint x="220" y="590" as="sourcePoint" />
            <Array as="points" />
          </mxGeometry>
        </mxCell>
        <mxCell id="SyflD4wRQNZvbjh-Ypq2-80" value="" style="edgeStyle=elbowEdgeStyle;elbow=vertical;verticalAlign=bottom;endArrow=open;endSize=8;strokeColor=#FF0000;endFill=1;rounded=0;entryX=0.5;entryY=0;entryDx=0;entryDy=0;exitX=0.5;exitY=1;exitDx=0;exitDy=0;" parent="1" source="SyflD4wRQNZvbjh-Ypq2-13" target="SyflD4wRQNZvbjh-Ypq2-65" edge="1">
          <mxGeometry x="264.5" y="168" as="geometry">
            <mxPoint x="370" y="530" as="targetPoint" />
            <mxPoint x="440" y="530" as="sourcePoint" />
            <Array as="points">
              <mxPoint x="400" y="510" />
            </Array>
          </mxGeometry>
        </mxCell>
        <mxCell id="SyflD4wRQNZvbjh-Ypq2-82" value="Consume" style="text;html=1;align=center;verticalAlign=middle;resizable=0;points=[];autosize=1;strokeColor=none;fillColor=none;" parent="1" vertex="1">
          <mxGeometry x="1040" y="145" width="70" height="30" as="geometry" />
        </mxCell>
        <mxCell id="SyflD4wRQNZvbjh-Ypq2-83" value="Produce" style="text;html=1;align=center;verticalAlign=middle;resizable=0;points=[];autosize=1;strokeColor=none;fillColor=none;" parent="1" vertex="1">
          <mxGeometry x="275" y="400" width="70" height="30" as="geometry" />
        </mxCell>
        <mxCell id="SyflD4wRQNZvbjh-Ypq2-84" value="Consume" style="text;html=1;align=center;verticalAlign=middle;resizable=0;points=[];autosize=1;strokeColor=none;fillColor=none;" parent="1" vertex="1">
          <mxGeometry x="405" y="470" width="70" height="30" as="geometry" />
        </mxCell>
        <mxCell id="SyflD4wRQNZvbjh-Ypq2-85" value="Produce" style="text;html=1;align=center;verticalAlign=middle;resizable=0;points=[];autosize=1;strokeColor=none;fillColor=none;" parent="1" vertex="1">
          <mxGeometry x="405" y="580" width="70" height="30" as="geometry" />
        </mxCell>
        <mxCell id="SyflD4wRQNZvbjh-Ypq2-86" value="Consume" style="text;html=1;align=center;verticalAlign=middle;resizable=0;points=[];autosize=1;strokeColor=none;fillColor=none;" parent="1" vertex="1">
          <mxGeometry x="405" y="678" width="70" height="30" as="geometry" />
        </mxCell>
        <mxCell id="SyflD4wRQNZvbjh-Ypq2-87" value="Produce" style="text;html=1;align=center;verticalAlign=middle;resizable=0;points=[];autosize=1;strokeColor=none;fillColor=none;" parent="1" vertex="1">
          <mxGeometry x="405" y="780" width="70" height="30" as="geometry" />
        </mxCell>
        <mxCell id="SyflD4wRQNZvbjh-Ypq2-88" value="Consume" style="text;html=1;align=center;verticalAlign=middle;resizable=0;points=[];autosize=1;strokeColor=none;fillColor=none;" parent="1" vertex="1">
          <mxGeometry x="405" y="870" width="70" height="30" as="geometry" />
        </mxCell>
        <mxCell id="SyflD4wRQNZvbjh-Ypq2-89" value="Consume" style="text;html=1;align=center;verticalAlign=middle;resizable=0;points=[];autosize=1;strokeColor=none;fillColor=none;" parent="1" vertex="1">
          <mxGeometry x="549" y="808" width="70" height="30" as="geometry" />
        </mxCell>
        <mxCell id="SyflD4wRQNZvbjh-Ypq2-90" value="Produce" style="text;html=1;align=center;verticalAlign=middle;resizable=0;points=[];autosize=1;strokeColor=none;fillColor=none;" parent="1" vertex="1">
          <mxGeometry x="850" y="808" width="70" height="30" as="geometry" />
        </mxCell>
        <mxCell id="SyflD4wRQNZvbjh-Ypq2-91" value="Consumer" style="text;html=1;align=center;verticalAlign=middle;resizable=0;points=[];autosize=1;strokeColor=none;fillColor=none;" parent="1" vertex="1">
          <mxGeometry x="990" y="878" width="80" height="30" as="geometry" />
        </mxCell>
        <mxCell id="SyflD4wRQNZvbjh-Ypq2-92" value="Produce" style="text;html=1;align=center;verticalAlign=middle;resizable=0;points=[];autosize=1;strokeColor=none;fillColor=none;" parent="1" vertex="1">
          <mxGeometry x="990" y="980" width="70" height="30" as="geometry" />
        </mxCell>
        <mxCell id="SyflD4wRQNZvbjh-Ypq2-95" value="" style="edgeStyle=elbowEdgeStyle;elbow=vertical;verticalAlign=bottom;endArrow=open;endSize=8;strokeColor=#FF0000;endFill=1;rounded=0;entryX=0;entryY=0.5;entryDx=0;entryDy=0;exitX=1;exitY=0.5;exitDx=0;exitDy=0;" parent="1" source="SyflD4wRQNZvbjh-Ypq2-11" target="SyflD4wRQNZvbjh-Ypq2-107" edge="1">
          <mxGeometry x="264.5" y="168" as="geometry">
            <mxPoint x="1070" y="413" as="targetPoint" />
            <mxPoint x="1140" y="413" as="sourcePoint" />
            <Array as="points" />
          </mxGeometry>
        </mxCell>
        <mxCell id="SyflD4wRQNZvbjh-Ypq2-96" value="" style="edgeStyle=elbowEdgeStyle;elbow=vertical;verticalAlign=bottom;endArrow=open;endSize=8;strokeColor=#FF0000;endFill=1;rounded=0;entryX=1;entryY=0.25;entryDx=0;entryDy=0;exitX=0.5;exitY=0;exitDx=0;exitDy=0;" parent="1" source="SyflD4wRQNZvbjh-Ypq2-107" target="SyflD4wRQNZvbjh-Ypq2-5" edge="1">
          <mxGeometry x="264.5" y="168" as="geometry">
            <mxPoint x="700" y="75" as="targetPoint" />
            <mxPoint x="770" y="75" as="sourcePoint" />
            <Array as="points">
              <mxPoint x="1080" y="60" />
            </Array>
          </mxGeometry>
        </mxCell>
        <mxCell id="SyflD4wRQNZvbjh-Ypq2-98" value="" style="edgeStyle=elbowEdgeStyle;elbow=vertical;verticalAlign=bottom;endArrow=open;endSize=8;strokeColor=#FF0000;endFill=1;rounded=0;entryX=0.5;entryY=1;entryDx=0;entryDy=0;exitX=0.5;exitY=0;exitDx=0;exitDy=0;" parent="1" source="SyflD4wRQNZvbjh-Ypq2-25" target="SyflD4wRQNZvbjh-Ypq2-62" edge="1">
          <mxGeometry x="264.5" y="168" as="geometry">
            <mxPoint x="860" y="745" as="targetPoint" />
            <mxPoint x="930" y="745" as="sourcePoint" />
            <Array as="points">
              <mxPoint x="990" y="735" />
            </Array>
          </mxGeometry>
        </mxCell>
        <mxCell id="SyflD4wRQNZvbjh-Ypq2-99" value="" style="edgeStyle=elbowEdgeStyle;elbow=vertical;verticalAlign=bottom;endArrow=open;endSize=8;strokeColor=#FF0000;endFill=1;rounded=0;entryX=0.5;entryY=0;entryDx=0;entryDy=0;exitX=0.5;exitY=1;exitDx=0;exitDy=0;" parent="1" source="SyflD4wRQNZvbjh-Ypq2-66" target="SyflD4wRQNZvbjh-Ypq2-63" edge="1">
          <mxGeometry x="264.5" y="168" as="geometry">
            <mxPoint x="800" y="1140" as="targetPoint" />
            <mxPoint x="870" y="1140" as="sourcePoint" />
            <Array as="points" />
          </mxGeometry>
        </mxCell>
        <mxCell id="SyflD4wRQNZvbjh-Ypq2-100" value="Consume" style="text;html=1;align=center;verticalAlign=middle;resizable=0;points=[];autosize=1;strokeColor=none;fillColor=none;" parent="1" vertex="1">
          <mxGeometry x="995" y="1090" width="70" height="30" as="geometry" />
        </mxCell>
        <mxCell id="SyflD4wRQNZvbjh-Ypq2-101" value="Consume" style="text;html=1;align=center;verticalAlign=middle;resizable=0;points=[];autosize=1;strokeColor=none;fillColor=none;" parent="1" vertex="1">
          <mxGeometry x="990" y="740" width="70" height="30" as="geometry" />
        </mxCell>
        <mxCell id="SyflD4wRQNZvbjh-Ypq2-106" value="Pending Purchase Order" style="rounded=1;whiteSpace=wrap;html=1;" parent="1" vertex="1">
          <mxGeometry x="80" y="168" width="120" height="60" as="geometry" />
        </mxCell>
        <mxCell id="SyflD4wRQNZvbjh-Ypq2-107" value="Payment Captured&lt;br&gt;(Update)" style="rounded=1;whiteSpace=wrap;html=1;" parent="1" vertex="1">
          <mxGeometry x="1160" y="220" width="120" height="60" as="geometry" />
        </mxCell>
        <mxCell id="SyflD4wRQNZvbjh-Ypq2-108" value="Produce" style="text;html=1;align=center;verticalAlign=middle;resizable=0;points=[];autosize=1;strokeColor=none;fillColor=none;" parent="1" vertex="1">
          <mxGeometry x="850" y="168" width="70" height="30" as="geometry" />
        </mxCell>
        <mxCell id="SyflD4wRQNZvbjh-Ypq2-109" value="Consume" style="text;html=1;align=center;verticalAlign=middle;resizable=0;points=[];autosize=1;strokeColor=none;fillColor=none;" parent="1" vertex="1">
          <mxGeometry x="730" y="30" width="70" height="30" as="geometry" />
        </mxCell>
        <mxCell id="SyflD4wRQNZvbjh-Ypq2-111" value="Produce" style="text;html=1;align=center;verticalAlign=middle;resizable=0;points=[];autosize=1;strokeColor=none;fillColor=none;" parent="1" vertex="1">
          <mxGeometry x="190" y="10" width="70" height="30" as="geometry" />
        </mxCell>
        <mxCell id="SyflD4wRQNZvbjh-Ypq2-112" value="Produce" style="text;html=1;align=center;verticalAlign=middle;resizable=0;points=[];autosize=1;strokeColor=none;fillColor=none;" parent="1" vertex="1">
          <mxGeometry x="1099" y="210" width="70" height="30" as="geometry" />
        </mxCell>
        <mxCell id="LgmhyMoLQVv_v872AzSd-1" value="Update Slots_Captured&lt;br&gt;_Payments" style="rounded=1;whiteSpace=wrap;html=1;" parent="1" vertex="1">
          <mxGeometry x="610" y="353" width="120" height="60" as="geometry" />
        </mxCell>
        <mxCell id="LgmhyMoLQVv_v872AzSd-2" value="" style="edgeStyle=elbowEdgeStyle;elbow=vertical;verticalAlign=bottom;endArrow=open;endSize=8;strokeColor=#FF0000;endFill=1;rounded=0;exitX=0;exitY=0.25;exitDx=0;exitDy=0;" parent="1" edge="1">
          <mxGeometry x="264.5" y="168" as="geometry">
            <mxPoint x="110" y="470" as="targetPoint" />
            <mxPoint x="100" y="395" as="sourcePoint" />
            <Array as="points">
              <mxPoint x="10" y="530" />
            </Array>
          </mxGeometry>
        </mxCell>
        <mxCell id="LgmhyMoLQVv_v872AzSd-4" value="Update Slots_Captured&lt;br&gt;_Payments" style="rounded=1;whiteSpace=wrap;html=1;" parent="1" vertex="1">
          <mxGeometry x="20" y="618" width="120" height="60" as="geometry" />
        </mxCell>
        <mxCell id="LgmhyMoLQVv_v872AzSd-5" value="" style="edgeStyle=elbowEdgeStyle;elbow=vertical;verticalAlign=bottom;endArrow=open;endSize=8;strokeColor=#FF0000;endFill=1;rounded=0;exitX=0;exitY=0.25;exitDx=0;exitDy=0;" parent="1" edge="1">
          <mxGeometry x="264.5" y="168" as="geometry">
            <mxPoint x="120" y="480" as="targetPoint" />
            <mxPoint x="110" y="405" as="sourcePoint" />
            <Array as="points">
              <mxPoint x="20" y="540" />
            </Array>
          </mxGeometry>
        </mxCell>
        <mxCell id="LgmhyMoLQVv_v872AzSd-6" value="" style="edgeStyle=elbowEdgeStyle;elbow=vertical;verticalAlign=bottom;endArrow=open;endSize=8;strokeColor=#FF0000;endFill=1;rounded=0;exitX=0.5;exitY=0;exitDx=0;exitDy=0;entryX=0;entryY=0.5;entryDx=0;entryDy=0;" parent="1" source="LgmhyMoLQVv_v872AzSd-1" target="SyflD4wRQNZvbjh-Ypq2-17" edge="1">
          <mxGeometry x="264.5" y="168" as="geometry">
            <mxPoint x="780" y="421" as="targetPoint" />
            <mxPoint x="770" y="346" as="sourcePoint" />
            <Array as="points">
              <mxPoint x="730" y="330" />
            </Array>
          </mxGeometry>
        </mxCell>
        <mxCell id="LgmhyMoLQVv_v872AzSd-7" value="" style="edgeStyle=elbowEdgeStyle;elbow=vertical;verticalAlign=bottom;endArrow=open;endSize=8;strokeColor=#FF0000;endFill=1;rounded=0;exitX=0.5;exitY=0;exitDx=0;exitDy=0;entryX=1;entryY=0.75;entryDx=0;entryDy=0;" parent="1" source="SyflD4wRQNZvbjh-Ypq2-18" target="SyflD4wRQNZvbjh-Ypq2-5" edge="1">
          <mxGeometry x="264.5" y="168" as="geometry">
            <mxPoint x="715" y="180" as="targetPoint" />
            <mxPoint x="705" y="105" as="sourcePoint" />
            <Array as="points">
              <mxPoint x="580" y="85" />
            </Array>
          </mxGeometry>
        </mxCell>
        <mxCell id="LgmhyMoLQVv_v872AzSd-8" value="" style="edgeStyle=elbowEdgeStyle;elbow=vertical;verticalAlign=bottom;endArrow=open;endSize=8;strokeColor=#FF0000;endFill=1;rounded=0;exitX=1;exitY=1;exitDx=0;exitDy=0;entryX=0;entryY=0;entryDx=0;entryDy=0;" parent="1" source="SyflD4wRQNZvbjh-Ypq2-14" target="LgmhyMoLQVv_v872AzSd-1" edge="1">
          <mxGeometry x="264.5" y="168" as="geometry">
            <mxPoint x="535" y="428" as="targetPoint" />
            <mxPoint x="525" y="353" as="sourcePoint" />
            <Array as="points">
              <mxPoint x="570" y="310" />
            </Array>
          </mxGeometry>
        </mxCell>
        <mxCell id="LgmhyMoLQVv_v872AzSd-9" value="Produce" style="text;html=1;align=center;verticalAlign=middle;resizable=0;points=[];autosize=1;strokeColor=none;fillColor=none;" parent="1" vertex="1">
          <mxGeometry x="490" y="280" width="70" height="30" as="geometry" />
        </mxCell>
        <mxCell id="LgmhyMoLQVv_v872AzSd-10" value="Consume" style="text;html=1;align=center;verticalAlign=middle;resizable=0;points=[];autosize=1;strokeColor=none;fillColor=none;" parent="1" vertex="1">
          <mxGeometry x="610" y="145" width="70" height="30" as="geometry" />
        </mxCell>
      </root>
    </mxGraphModel>
  </diagram>
</mxfile>
